<svg xmlns="http://www.w3.org/2000/svg" 
    xmlns:xlink="http://www.w3.org/1999/xlink" 
    width="200" zoomAndPan="magnify" 
    viewBox="0 0 600 899.99999" 
    preserveAspectRatio="xMidYMid meet" 
    version="1.0"
>
    <path fill="#000000" 
        d="M 197.949219 431.707031 C 196.742188 375.972656 201.410156 344.9375 206.308594 327.855469 L 206.308594 857.605469 C 206.308594 881.058594 225.320312 900.058594 248.757812 900.058594 C 272.207031 900.058594 291.21875 881.058594 291.21875 857.605469 L 291.21875 547.628906 L 307.132812 547.628906 L 307.132812 857.605469 C 307.132812 881.058594 326.148438 900.058594 349.585938 900.058594 C 373.03125 900.058594 392.046875 881.058594 392.046875 857.605469 L 392.046875 327.867188 C 396.9375 344.953125 401.605469 375.988281 400.398438 431.707031 C 400.109375 445.0625 409.46875 456.6875 422.570312 459.257812 L 562.5 486.726562 C 564.289062 487.078125 566.066406 487.246094 567.820312 487.246094 C 580.6875 487.246094 592.175781 478.160156 594.746094 465.0625 C 597.667969 450.179688 587.96875 435.738281 573.082031 432.816406 L 455.515625 409.734375 C 454.960938 322.976562 439.316406 274.742188 406.796875 258.648438 C 388.496094 249.585938 370.273438 253.617188 357.996094 259.703125 L 240.351562 259.703125 C 228.074219 253.613281 209.859375 249.585938 191.550781 258.648438 C 159.035156 274.742188 143.382812 322.976562 142.832031 409.734375 L 25.265625 432.816406 C 10.382812 435.738281 0.679688 450.179688 3.601562 465.0625 C 6.175781 478.164062 17.664062 487.246094 30.527344 487.246094 C 32.28125 487.246094 34.0625 487.078125 35.851562 486.726562 L 175.777344 459.257812 C 188.882812 456.6875 198.242188 445.0625 197.949219 431.707031 Z M 197.949219 431.707031 " fill-opacity="1" fill-rule="nonzero"/><path fill="#000000" d="M 299.179688 240.140625 C 341.851562 240.140625 376.4375 205.550781 376.4375 162.878906 C 376.4375 120.207031 341.851562 85.617188 299.179688 85.617188 C 256.507812 85.617188 221.917969 120.207031 221.917969 162.878906 C 221.917969 205.550781 256.507812 240.140625 299.179688 240.140625 Z M 347.683594 185.085938 L 346.867188 195.351562 C 309.316406 192.371094 271.925781 211.75 271.554688 211.949219 L 266.757812 202.832031 C 268.390625 201.972656 307.179688 181.871094 347.683594 185.085938 Z M 347.683594 185.085938 " 
        fill-opacity="1" 
        fill-rule="nonzero"
    />
    <path fill="#000000" 
        d="M 453.464844 22.71875 C 459.039062 22.71875 462.082031 20.960938 462.59375 17.445312 C 462.789062 16.417969 463.648438 15.371094 465.171875 14.300781 C 466.691406 13.234375 469.585938 12.703125 473.855469 12.703125 C 475.316406 12.703125 476.78125 12.9375 478.242188 13.414062 C 479.707031 13.886719 480.691406 14.410156 481.207031 14.980469 C 481.71875 15.554688 482.28125 16.988281 482.898438 19.28125 C 483.511719 21.574219 483.816406 23.390625 483.816406 24.734375 C 483.816406 26.628906 483.34375 28.546875 482.394531 30.480469 C 481.449219 32.417969 480.28125 33.683594 478.894531 34.277344 L 470.894531 37.417969 C 465.835938 39.394531 462.410156 40.855469 460.613281 41.804688 C 458.8125 42.75 456.828125 44.132812 454.652344 45.953125 C 452.242188 50.851562 450.75 54.097656 450.179688 55.699219 C 449.605469 57.300781 449.320312 59.03125 449.320312 60.886719 C 449.320312 62.621094 449.636719 64.292969 450.269531 65.894531 C 450.902344 67.496094 451.769531 68.296875 452.875 68.296875 C 456.273438 68.296875 458.683594 67.800781 460.105469 66.816406 C 461.527344 65.824219 462.4375 64.304688 462.832031 62.25 C 463.621094 58.378906 464.550781 55.0625 465.617188 52.292969 C 475.535156 48.855469 482.078125 46.398438 485.238281 44.914062 C 488.398438 43.433594 491.164062 40.824219 493.539062 37.09375 C 495.90625 33.359375 497.09375 28.546875 497.09375 22.660156 L 497.09375 22.597656 C 497.015625 17.265625 496.386719 13.351562 495.199219 10.859375 C 494.015625 8.371094 491.269531 5.6875 486.960938 2.796875 C 484.351562 0.980469 480.835938 0.171875 476.410156 0.367188 C 474.117188 0.445312 471.828125 0.503906 469.535156 0.546875 C 466.257812 0.625 463.136719 1.574219 460.171875 3.390625 L 460.230469 3.390625 C 456.714844 5.285156 453.796875 7.589844 451.488281 10.292969 C 449.175781 13 448.019531 15.402344 448.019531 17.496094 C 448.011719 20.980469 449.828125 22.71875 453.464844 22.71875 Z M 453.464844 22.71875 " fill-opacity="1" fill-rule="nonzero"/><path fill="#000000" d="M 450.679688 93.074219 C 453.050781 93.074219 455.609375 92.195312 458.355469 90.4375 C 461.101562 88.679688 462.476562 86.574219 462.476562 84.125 C 462.476562 81.003906 460.675781 79.324219 457.082031 79.085938 C 455.144531 77.746094 453.542969 77.070312 452.28125 77.070312 C 450.464844 77.070312 449.039062 77.488281 448.011719 78.316406 C 447.65625 78.628906 447.183594 78.988281 446.589844 79.382812 C 443.429688 81.554688 441.847656 83.550781 441.847656 85.371094 C 441.847656 87.585938 442.695312 89.421875 444.398438 90.882812 C 446.097656 92.34375 448.191406 93.074219 450.679688 93.074219 Z M 450.679688 93.074219 " fill-opacity="1" fill-rule="nonzero"/><path fill="#000000" d="M 411.871094 108.660156 C 410.203125 108.007812 408.902344 107.789062 407.964844 108.011719 C 406.617188 108.328125 405.640625 108.886719 405.023438 109.683594 C 404.820312 109.980469 404.53125 110.324219 404.160156 110.722656 C 402.203125 112.886719 401.382812 114.644531 401.699219 115.992188 C 402.089844 117.628906 403.042969 118.839844 404.558594 119.625 C 406.070312 120.40625 407.75 120.582031 409.59375 120.140625 C 411.351562 119.726562 413.085938 118.625 414.816406 116.839844 C 416.539062 115.054688 417.183594 113.257812 416.753906 111.441406 C 416.203125 109.132812 414.578125 108.207031 411.871094 108.660156 Z M 411.871094 108.660156 " fill-opacity="1" fill-rule="nonzero"/><path fill="#000000" d="M 399.285156 67.566406 C 403.410156 66.589844 405.355469 64.75 405.117188 62.054688 C 405.082031 61.261719 405.535156 60.335938 406.472656 59.277344 C 407.410156 58.21875 409.460938 57.316406 412.621094 56.566406 C 413.703125 56.308594 414.828125 56.230469 415.992188 56.320312 C 417.15625 56.414062 417.980469 56.628906 418.460938 56.964844 C 418.941406 57.296875 419.609375 58.261719 420.464844 59.847656 C 421.320312 61.4375 421.871094 62.730469 422.105469 63.722656 C 422.4375 65.128906 422.425781 66.628906 422.0625 68.230469 C 421.703125 69.828125 421.0625 70.96875 420.140625 71.652344 L 414.769531 75.386719 C 411.375 77.738281 409.089844 79.425781 407.929688 80.441406 C 406.765625 81.457031 405.539062 82.832031 404.25 84.5625 C 403.324219 88.613281 402.792969 91.28125 402.652344 92.566406 C 402.507812 93.847656 402.601562 95.179688 402.925781 96.554688 C 403.234375 97.84375 403.761719 99.023438 404.511719 100.09375 C 405.257812 101.171875 406.042969 101.609375 406.863281 101.414062 C 409.378906 100.816406 411.074219 100.027344 411.953125 99.042969 C 412.832031 98.0625 413.238281 96.777344 413.167969 95.183594 C 413.074219 92.179688 413.175781 89.558594 413.480469 87.320312 C 420.21875 83.03125 424.628906 80.0625 426.710938 78.410156 C 428.789062 76.757812 430.375 74.34375 431.476562 71.160156 C 432.574219 67.980469 432.605469 64.207031 431.570312 59.847656 L 431.5625 59.804688 C 430.566406 55.867188 429.410156 53.082031 428.09375 51.449219 C 426.777344 49.8125 424.269531 48.308594 420.578125 46.929688 C 418.328125 46.042969 415.582031 46.0625 412.339844 46.984375 C 410.65625 47.449219 408.96875 47.894531 407.28125 48.328125 C 404.867188 48.960938 402.722656 50.210938 400.847656 52.082031 L 400.894531 52.070312 C 398.625 54.09375 396.871094 56.308594 395.636719 58.71875 C 394.402344 61.128906 393.96875 63.109375 394.335938 64.660156 C 394.941406 67.242188 396.59375 68.207031 399.285156 67.566406 Z M 399.285156 67.566406 " 
        fill-opacity="1" 
        fill-rule="nonzero"
    />
</svg>